<svg width="25" height="19" xmlns="http://www.w3.org/2000/svg"><g fill-rule="nonzero" fill="none"><path d="M6.678 10.344l-2.6-2.615a.404.404 0 010-.57l.566-.568a.398.398 0 01.566 0L6.96 8.352l3.752-3.773a.398.398 0 01.565 0l.566.57a.404.404 0 010 .568l-4.6 4.627a.398.398 0 01-.566 0z" fill="#50B83C"/><path d="M24.688 13.933h-.938V9.654c0-.665-.266-1.318-.734-1.789l-3.278-3.32a2.472 2.472 0 00-1.765-.745H16.25V1.845C16.25.827 15.383 0 14.32 0H1.93C.867 0 0 .827 0 1.845v11.51C0 14.373.867 15.2 1.93 15.2h.633a3.081 3.081 0 00-.063.633C2.5 17.583 3.898 19 5.625 19s3.125-1.417 3.125-3.167c0-.217-.023-.427-.063-.633h7.626a3.081 3.081 0 00-.063.633c0 1.75 1.398 3.167 3.125 3.167s3.125-1.417 3.125-3.167c0-.217-.023-.427-.063-.633h2.25a.316.316 0 00.313-.317v-.633a.316.316 0 00-.313-.317zm-6.715-8.866c.328 0 .652.134.882.372l3.278 3.32c.031.032.043.076.07.112H16.25v-3.8h1.723v-.004zM5.625 17.733c-1.035 0-1.875-.85-1.875-1.9 0-1.049.84-1.9 1.875-1.9 1.035 0 1.875.851 1.875 1.9 0 1.05-.84 1.9-1.875 1.9zm2.484-3.8a3.101 3.101 0 00-2.484-1.266 3.101 3.101 0 00-2.484 1.266H1.93c-.375 0-.68-.257-.68-.578V1.845c0-.321.305-.578.68-.578h12.39c.375 0 .68.257.68.578v12.088H8.11zm11.266 3.8c-1.035 0-1.875-.85-1.875-1.9 0-1.049.84-1.9 1.875-1.9 1.035 0 1.875.851 1.875 1.9 0 1.05-.84 1.9-1.875 1.9zm0-5.066c-1.02 0-1.914.502-2.484 1.266h-.641v-3.8h6.25v3.8h-.64c-.57-.764-1.465-1.266-2.485-1.266z" fill="#1D6C93"/></g></svg>